<?xml version="1.0" standalone="no"?>
<!DOCTYPE svg PUBLIC "-//W3C//DTD SVG 20010904//EN"
 "http://www.w3.org/TR/2001/REC-SVG-20010904/DTD/svg10.dtd">
<svg version="1.0" xmlns="http://www.w3.org/2000/svg"
 width="576.000000pt" height="576.000000pt" viewBox="0 0 576.000000 576.000000"
 preserveAspectRatio="xMidYMid meet">
<metadata>
Created by potrace 1.14, written by Peter Selinger 2001-2017
</metadata>
<g transform="translate(0.000000,576.000000) scale(0.100000,-0.100000)"
fill="#000000" stroke="none">
<path d="M737 4804 c-3 -3 -45 -6 -94 -6 -48 -1 -101 -5 -118 -10 -16 -4 -43
-11 -60 -13 -16 -3 -68 -24 -114 -46 -64 -32 -101 -59 -160 -118 -42 -42 -85
-94 -96 -116 -11 -22 -23 -42 -26 -45 -4 -3 -20 -41 -35 -85 l-29 -80 0 -1395
c0 -767 4 -1408 9 -1425 4 -16 9 -37 11 -45 2 -8 4 -16 5 -17 2 -2 3 -7 4 -11
0 -5 19 -44 40 -86 26 -51 62 -100 105 -144 77 -77 99 -95 161 -127 102 -52
191 -73 316 -75 27 0 81 -1 119 -1 39 -1 76 -1 83 -1 13 1 244 1 265 1 6 -1
30 0 52 0 22 1 47 0 55 0 16 -1 104 0 160 2 19 1 40 1 45 1 6 -1 62 -1 125 -1
63 0 144 -1 180 -2 36 0 72 -1 80 0 64 3 252 1 258 -3 5 -3 14 -1 20 3 7 4 33
5 57 1 25 -4 45 -4 45 -1 0 3 27 6 60 6 33 0 60 -2 60 -5 0 -3 71 -4 157 -2
87 2 187 2 223 1 36 0 71 -1 78 -1 13 1 244 1 265 1 6 -1 30 0 52 0 22 1 47 0
55 0 16 -1 104 0 160 2 19 1 40 1 45 1 6 -1 62 -1 125 -1 63 0 144 -1 180 -2
36 0 72 -1 80 0 64 3 252 1 258 -3 5 -3 14 -1 20 3 7 4 33 5 57 1 25 -4 45 -4
45 -1 0 3 27 6 60 6 33 0 60 -2 60 -5 0 -3 71 -4 157 -2 87 2 187 2 223 1 36
0 71 -1 78 -1 13 1 244 1 265 1 6 -1 30 0 52 0 22 1 47 0 55 -1 79 -7 319 43
340 71 3 3 23 15 44 26 60 30 178 152 219 226 20 36 47 94 59 130 l23 64 2
1375 c3 1535 7 1444 -68 1598 -57 118 -165 225 -284 282 -47 23 -93 43 -103
45 -9 2 -17 4 -17 5 0 7 -210 22 -270 20 -22 -1 -46 -2 -52 -1 -20 0 -242 0
-255 -1 -7 0 -42 0 -78 1 -36 0 -72 0 -80 0 -8 0 -77 0 -152 1 -76 1 -142 -2
-148 -5 -5 -3 -10 -3 -10 2 0 4 -27 8 -60 8 -33 0 -60 -3 -60 -6 0 -3 -20 -3
-45 1 -24 4 -49 4 -55 0 -6 -3 -32 -4 -58 -1 -26 3 -81 4 -122 1 -41 -3 -96
-2 -122 1 -26 3 -52 2 -58 -1 -6 -4 -31 -4 -55 0 -25 4 -45 4 -45 1 0 -3 -27
-6 -60 -6 -33 0 -60 2 -60 5 0 3 -30 4 -67 3 -147 -5 -323 -4 -331 1 -4 2 -14
1 -20 -3 -7 -4 -33 -5 -57 -1 -25 4 -45 4 -45 1 0 -3 -27 -6 -60 -6 -33 0 -60
2 -60 5 0 6 -438 3 -462 -4 -10 -2 -18 -1 -18 2 0 4 -27 7 -60 7 -33 0 -60 -3
-60 -6 0 -3 -20 -3 -45 1 -24 4 -50 3 -57 -1 -6 -4 -15 -6 -19 -3 -5 2 -59 4
-121 4 -62 0 -142 0 -178 1 -36 1 -71 1 -77 1 -14 -1 -245 -1 -265 -1 -7 1
-31 0 -53 0 -22 -1 -47 0 -55 0 -16 1 -104 0 -160 -2 -19 -1 -39 -1 -45 -1 -5
1 -62 1 -125 1 -199 1 -243 2 -250 6 -4 3 -10 2 -13 -1z m190 -644 c214 2 247
-2 282 -28 55 -41 73 -93 71 -199 0 -24 -1 -51 0 -60 0 -10 0 -36 -1 -58 0
-22 0 -47 0 -55 3 -47 0 -108 -5 -125 -10 -34 -54 -86 -82 -97 -38 -15 -112
-26 -117 -18 -3 4 -22 4 -44 0 -22 -4 -45 -4 -51 0 -6 4 -31 4 -55 0 -25 -4
-45 -4 -45 -1 0 3 -28 6 -63 5 -72 -1 -90 6 -134 52 -30 32 -45 80 -43 139 1
11 1 63 0 115 -1 186 4 225 35 265 28 37 88 71 105 60 6 -4 10 -1 10 5 0 6 4
8 10 5 5 -3 62 -5 127 -5z m1031 1 c23 3 42 3 42 0 0 -3 30 -6 66 -5 57 1 71
-3 104 -27 64 -47 71 -72 70 -279 0 -191 -4 -225 -34 -264 -33 -43 -54 -56
-109 -63 -42 -5 -46 -6 -82 -3 -11 1 -69 2 -130 1 -60 0 -121 1 -135 3 -14 2
-33 4 -42 5 -21 1 -97 73 -99 92 -1 8 -3 23 -4 34 -4 31 -6 90 -5 219 0 65 -1
121 -4 123 -8 8 16 67 41 101 31 42 85 64 146 60 26 -2 47 0 47 3 0 3 19 3 43
-1 23 -3 61 -3 85 1z m857 -1 c18 4 38 4 44 0 7 -4 32 -4 56 0 25 4 45 4 45 1
0 -3 30 -6 66 -5 57 1 71 -3 104 -27 64 -47 70 -72 70 -284 1 -186 -4 -220
-35 -260 -28 -37 -88 -71 -105 -60 -6 4 -10 1 -10 -5 0 -6 -4 -8 -10 -5 -5 3
-62 5 -127 5 -253 -2 -275 3 -325 71 -22 30 -33 117 -27 209 1 8 1 31 0 50 -1
19 -1 59 -1 89 0 30 -2 57 -4 59 -8 7 17 67 41 100 14 18 37 38 51 44 39 16
105 25 121 18 7 -4 28 -4 46 0z m947 -5 c5 5 172 7 238 2 69 -5 93 -17 129
-67 24 -33 28 -47 27 -104 -1 -36 2 -66 5 -66 3 0 3 -19 0 -42 -4 -24 -4 -62
-1 -86 4 -23 4 -45 1 -47 -3 -3 -4 -25 -2 -48 3 -55 -21 -110 -61 -140 -34
-25 -93 -49 -101 -41 -2 3 -58 4 -123 4 -216 -1 -248 2 -283 28 -62 46 -72 82
-72 267 0 205 5 240 35 279 33 43 54 56 109 62 23 3 43 7 45 9 2 2 14 0 27 -5
13 -5 25 -7 27 -5z m1207 1 c118 -12 161 -85 150 -256 -1 -8 0 -44 0 -80 4
-144 -4 -196 -34 -235 -28 -37 -88 -71 -105 -60 -6 4 -10 1 -10 -5 0 -6 -4 -8
-10 -5 -5 3 -62 5 -127 5 -214 -2 -247 2 -282 28 -57 42 -73 90 -71 212 1 76
1 81 0 163 -1 131 9 160 66 203 29 23 48 28 106 31 39 1 72 4 74 5 4 5 183 0
243 -6z m-3993 -955 c171 -1 201 -5 233 -29 55 -41 73 -93 71 -199 0 -24 -1
-51 0 -60 0 -10 0 -36 -1 -58 0 -22 0 -47 0 -55 3 -47 0 -108 -5 -125 -10 -34
-54 -86 -82 -97 -33 -13 -122 -27 -122 -18 0 3 -24 4 -52 0 -29 -3 -74 -3
-100 0 -27 3 -48 3 -48 -1 0 -4 -8 -5 -17 -3 -10 2 -38 6 -63 8 -25 2 -48 5
-52 5 -5 1 -24 16 -43 34 -38 36 -55 79 -55 142 0 22 0 47 -1 55 0 8 0 33 0
55 1 22 1 49 1 60 0 11 0 42 0 68 0 27 -2 53 -5 58 -4 5 -1 9 5 9 6 0 9 4 5
10 -11 17 23 77 60 105 31 24 48 29 107 32 39 1 73 5 76 8 3 2 8 3 12 0 4 -2
38 -4 76 -4z m960 0 c171 -1 201 -5 233 -29 62 -46 72 -83 72 -267 -1 -207 -5
-240 -35 -279 -43 -57 -72 -67 -203 -66 -40 1 -81 1 -90 1 -85 -1 -142 0 -163
3 -14 2 -33 4 -42 5 -21 1 -97 73 -99 92 -1 8 -3 23 -4 34 -5 32 -6 91 -5 218
0 65 -2 122 -5 127 -3 6 -1 10 5 10 6 0 9 4 5 10 -11 17 23 77 60 105 31 24
48 29 107 32 39 1 73 5 76 8 3 2 8 3 12 0 4 -2 38 -4 76 -4z m876 -5 c4 3 38
5 101 4 9 -1 36 0 60 0 106 2 158 -16 199 -71 23 -30 33 -101 27 -189 -1 -8 0
-44 0 -80 4 -142 -4 -196 -33 -234 -48 -63 -76 -70 -288 -65 -7 1 -33 0 -58 0
-25 0 -54 -1 -65 -1 -62 -1 -107 13 -139 43 -46 44 -53 62 -52 134 1 35 -2 63
-5 63 -3 0 -3 20 1 45 4 24 4 49 0 55 -4 7 -4 26 -1 43 4 18 4 48 1 68 -9 50
19 117 63 152 38 31 124 50 163 36 12 -4 24 -6 26 -3z m960 0 c4 3 38 5 101 4
9 -1 36 0 60 0 106 2 158 -16 199 -71 26 -35 30 -68 28 -282 0 -65 2 -122 5
-127 3 -6 1 -10 -5 -10 -6 0 -9 -4 -5 -10 11 -17 -23 -77 -60 -105 -40 -31
-77 -36 -265 -35 -52 1 -104 1 -115 1 -68 0 -107 12 -139 42 -46 44 -53 62
-52 134 1 35 -2 63 -5 63 -3 0 -3 20 1 45 4 24 4 49 0 56 -4 6 -4 26 0 45 4
18 5 36 2 39 -10 10 -2 83 13 119 21 50 74 87 137 95 29 4 63 4 74 0 12 -4 24
-6 26 -3z m960 0 c4 3 38 5 101 4 9 -1 36 0 60 0 106 2 158 -16 199 -71 23
-30 33 -101 27 -189 -1 -8 0 -44 0 -80 4 -144 -4 -196 -34 -235 -28 -37 -88
-71 -105 -60 -6 4 -10 1 -10 -5 0 -6 -4 -9 -9 -5 -5 3 -31 5 -58 5 -26 0 -57
0 -68 0 -11 0 -38 0 -60 -1 -22 0 -47 0 -55 0 -8 1 -33 1 -55 1 -63 0 -106 17
-142 55 -18 19 -33 38 -34 43 0 4 -3 27 -5 52 -2 25 -6 53 -8 63 -2 9 -1 17 3
17 4 0 4 21 1 48 -3 26 -3 68 1 95 3 26 3 50 0 53 -9 9 0 84 15 119 20 49 74
86 136 94 29 4 63 4 74 0 12 -4 24 -6 26 -3z m-3805 -956 c214 2 247 -2 282
-28 62 -46 72 -83 72 -267 -1 -209 -5 -240 -36 -280 -28 -37 -88 -71 -105 -60
-6 4 -10 1 -10 -5 0 -6 -4 -8 -10 -5 -5 3 -62 5 -127 5 -214 -2 -247 2 -282
28 -62 46 -72 82 -72 267 0 207 4 240 36 280 28 37 88 71 105 60 6 -4 10 -1
10 5 0 6 4 8 10 5 5 -3 62 -5 127 -5z m970 0 c26 0 57 0 68 0 11 0 38 0 60 1
22 0 46 1 53 0 19 0 241 0 255 1 6 0 41 -1 77 -1 36 -1 138 -1 228 1 89 2 162
1 162 -2 0 -3 27 -5 60 -5 33 0 60 3 60 6 0 3 20 3 45 -1 24 -4 50 -3 57 1 6
4 16 5 20 3 8 -5 184 -6 331 -1 37 1 67 0 67 -3 0 -3 27 -5 60 -5 33 0 60 3
60 6 0 3 20 3 45 -1 24 -4 50 -3 57 1 6 4 16 5 20 3 5 -3 57 -5 116 -4 247 4
284 -4 334 -71 23 -30 33 -101 27 -189 -1 -8 0 -44 0 -80 4 -142 -4 -196 -33
-234 -15 -20 -36 -41 -47 -46 -20 -11 -89 -23 -119 -21 -25 1 -230 0 -298 -2
-34 -1 -62 0 -62 3 0 3 -27 5 -60 5 -33 0 -60 -3 -60 -6 0 -3 -20 -3 -45 1
-24 4 -50 3 -57 -1 -6 -4 -16 -5 -20 -3 -8 5 -184 6 -331 1 -37 -1 -67 0 -67
3 0 3 -27 5 -60 5 -33 0 -60 -3 -60 -6 0 -3 -20 -3 -45 1 -24 4 -49 4 -55 0
-6 -3 -32 -4 -58 -1 -26 3 -81 4 -122 1 -41 -3 -96 -2 -122 1 -26 3 -52 2 -58
-1 -6 -4 -31 -4 -55 0 -25 4 -45 4 -45 1 0 -3 -27 -6 -60 -6 -33 0 -60 4 -60
8 0 5 -5 5 -10 2 -6 -3 -70 -6 -143 -5 -72 1 -139 1 -147 1 -95 -5 -159 4
-189 27 -67 50 -75 86 -71 335 1 60 -1 111 -3 114 -9 8 15 66 40 101 31 42 85
64 146 60 26 -2 47 1 47 5 0 5 4 6 9 2 5 -3 31 -5 58 -5z m3072 -4 c118 -12
161 -85 150 -256 -1 -8 0 -44 0 -80 4 -144 -4 -196 -34 -235 -28 -37 -88 -71
-105 -60 -6 4 -10 1 -10 -5 0 -6 -4 -8 -10 -5 -5 3 -62 5 -127 5 -214 -2 -247
2 -282 28 -62 46 -72 81 -70 257 1 128 1 124 -2 150 -3 32 9 102 21 124 5 11
26 32 46 47 29 23 48 28 106 31 39 1 72 4 74 5 4 5 183 0 243 -6z"/>
</g>
</svg>
